<?xml version="1.0" encoding="UTF-8" standalone="no"?>
<!-- Created with Inkscape (http://www.inkscape.org/) -->

<svg
   version="1.1"
   id="svg2"
   width="209.80049"
   height="129.76715"
   viewBox="0 0 209.8005 129.76715"
   sodipodi:docname="JST BXH.svg"
   inkscape:version="1.2.2 (732a01da63, 2022-12-09)"
   inkscape:export-filename="JST BXH.png"
   inkscape:export-xdpi="196.14537"
   inkscape:export-ydpi="196.14537"
   xml:space="preserve"
   xmlns:inkscape="http://www.inkscape.org/namespaces/inkscape"
   xmlns:sodipodi="http://sodipodi.sourceforge.net/DTD/sodipodi-0.dtd"
   xmlns="http://www.w3.org/2000/svg"
   xmlns:svg="http://www.w3.org/2000/svg"><defs
     id="defs6"><filter
       inkscape:label="Opacity"
       style="color-interpolation-filters:sRGB"
       id="filter1585"
       x="-0.0073998477"
       y="-0.014219827"
       width="1.0147997"
       height="1.0284397"><feColorMatrix
         values="1 0 0 0 0 0 1 0 0 0 0 0 1 0 0 0 0 0 5 -1 "
         result="colormatrix"
         id="feColorMatrix1581" /><feComposite
         in2="colormatrix"
         operator="arithmetic"
         k2="0.423676"
         result="fbSourceGraphic"
         id="feComposite1583"
         k1="0"
         k3="0"
         k4="0" /><feColorMatrix
         result="fbSourceGraphicAlpha"
         in="fbSourceGraphic"
         values="0 0 0 -1 0 0 0 0 -1 0 0 0 0 -1 0 0 0 0 1 0"
         id="feColorMatrix1587" /><feColorMatrix
         id="feColorMatrix1589"
         values="1 0 0 0 0 0 1 0 0 0 0 0 1 0 0 0 0 0 5 -1 "
         result="colormatrix"
         in="fbSourceGraphic" /><feComposite
         in2="colormatrix"
         id="feComposite1591"
         operator="arithmetic"
         k2="1"
         result="composite"
         k1="0"
         k3="0"
         k4="0" /></filter></defs><sodipodi:namedview
     id="namedview4"
     pagecolor="#ffffff"
     bordercolor="#000000"
     borderopacity="0.25"
     inkscape:showpageshadow="2"
     inkscape:pageopacity="0.0"
     inkscape:pagecheckerboard="0"
     inkscape:deskcolor="#d1d1d1"
     showgrid="false"
     inkscape:zoom="3.6494756"
     inkscape:cx="115.77006"
     inkscape:cy="108.78275"
     inkscape:window-width="2560"
     inkscape:window-height="1377"
     inkscape:window-x="1912"
     inkscape:window-y="-8"
     inkscape:window-maximized="1"
     inkscape:current-layer="layer4" /><g
     inkscape:groupmode="layer"
     id="layer2"
     inkscape:label="Image 2"
     transform="translate(-33.227297,-17.557304)"
     style="display:none;filter:url(#filter1585)"><path
       id="path384"
       style="fill:#000000;stroke:#ffffff;stroke-width:3.77953;stroke-linecap:square;stroke-dasharray:none"
       d="m 8.4941406,12.055718 v 14.25 H 22.46875 V 144.9522 H 249.89844 V 26.305718 h 13.97461 v -14.25 z"
       sodipodi:nodetypes="ccccccccc" /><path
       id="path422"
       style="fill:#000000;stroke:#ffffff;stroke-width:3.77953;stroke-linecap:square;stroke-dasharray:none"
       d="M 55.076172,12.055718 50.966797,71.790102 41.375,76.174862 v 15.0703 L 52.884766,114.26274 H 63.845703 V 27.399468 H 208.52344 v 86.863272 h 10.96094 l 11.50781,-23.017578 v -15.07031 l -9.58985,-4.38476 -4.11132,-59.734374 z"
       sodipodi:nodetypes="ccccccccccccccc" /></g><g
     inkscape:groupmode="layer"
     id="layer4"
     inkscape:label="Layer 2"
     style="fill:#ffffff"
     transform="translate(-26.62292,-7.3913507)"><path
       style="fill:#000000;stroke:#000000;stroke-width:7.55906;stroke-linecap:square;stroke-dasharray:none"
       d="m 80.021113,49.213953 -44.563816,32.16345 c 0,0 -8.064988,4.726612 -3.950852,14.324863 2.976014,6.943024 12.609537,6.491644 12.609537,6.491644 l 11.879422,3.15114 46.160056,26.65052 4.80534,-8.32309 L 60.437692,96.81235 H 41.673267 c 0,0 -5.07999,0.01277 -5.07999,-5.170777 0,-2.717433 2.167326,-3.879899 2.167326,-3.879899 l 43.198068,-30.40998 z"
       id="path2013"
       sodipodi:nodetypes="ccsccccccsccc" /></g><g
     inkscape:groupmode="layer"
     id="layer3"
     inkscape:label="Layer 1"
     style="display:inline;fill:none;stroke:#000000"
     transform="translate(-26.62292,-7.3913507)" /><path
     style="display:inline;fill:#ffffff;stroke:#000000;stroke-width:7.55906;stroke-linecap:square;stroke-dasharray:none"
     d="M 34.740894,24.345642 H 24.665597 c 0,0 -10.269054,0.775023 -10.269054,10.269053 v 67.233235 h 71.108353 v -2.712578 h 70.914594 l 8.52525,9.300278 h 41.07622 V 14.270344 c 0,0 -1.16254,-10.4628097 -10.46281,-10.4628097 h -13.4494 c 0,0 -9.99504,-1.1000809 -9.99504,10.9540847 v 62.191553 c 0,0 0.40413,8.909912 -11.10201,8.909912 -10.67153,0 -10.40488,-9.038852 -10.40488,-9.038852 l -0.002,-9.042201 c 0,0 0.69694,-8.82758 -7.86853,-8.82758 h -33.16272 c -8.79796,0 -7.89357,7.893576 -7.89357,7.893576 l 0.007,6.654061 c 0,0 0.17946,9.815813 -11.422728,9.815813 -11.60218,0 -10.766026,-9.395972 -10.766026,-9.395972 V 26.670711 H 47.916283 v 51.054633 c 0,0 0.34766,6.597431 -6.78145,6.460425 -7.12911,-0.137006 -6.587694,-6.169792 -6.587694,-6.169792 z"
     id="path2010"
     sodipodi:nodetypes="ccscccccccscscsccszcczcccczcc" /></svg>
