<?xml version="1.0" encoding="UTF-8" standalone="no"?>
<!-- Created with Inkscape (http://www.inkscape.org/) -->

<svg
   version="1.1"
   id="svg1"
   width="37.417324"
   height="37.417324"
   viewBox="0 0 37.417324 37.417324"
   sodipodi:docname="M5 Washer.svg"
   inkscape:version="1.3.2 (091e20e, 2023-11-25, custom)"
   inkscape:export-filename="..\PNG\M5.png"
   inkscape:export-xdpi="1200"
   inkscape:export-ydpi="1200"
   xmlns:inkscape="http://www.inkscape.org/namespaces/inkscape"
   xmlns:sodipodi="http://sodipodi.sourceforge.net/DTD/sodipodi-0.dtd"
   xmlns="http://www.w3.org/2000/svg"
   xmlns:svg="http://www.w3.org/2000/svg">
  <defs
     id="defs1" />
  <sodipodi:namedview
     id="namedview1"
     pagecolor="#ffffff"
     bordercolor="#000000"
     borderopacity="0.25"
     inkscape:showpageshadow="2"
     inkscape:pageopacity="0.0"
     inkscape:pagecheckerboard="0"
     inkscape:deskcolor="#d1d1d1"
     inkscape:zoom="22.627417"
     inkscape:cx="18.870912"
     inkscape:cy="18.340582"
     inkscape:window-width="2560"
     inkscape:window-height="1377"
     inkscape:window-x="-8"
     inkscape:window-y="-8"
     inkscape:window-maximized="1"
     inkscape:current-layer="layer1" />
  <g
     inkscape:groupmode="layer"
     id="layer1"
     inkscape:label="Layer 1">
    <path
       id="path1"
       style="opacity:1;fill:#000000;stroke-width:0.0248105;stroke-linecap:square"
       d="M 18.708661,0 A 18.708661,18.708661 0 0 0 0,18.708661 18.708661,18.708661 0 0 0 18.708661,37.417323 18.708661,18.708661 0 0 0 37.417323,18.708661 18.708661,18.708661 0 0 0 18.708661,0 Z m 0,8.6516019 A 10.057077,10.057077 0 0 1 28.765721,18.708661 10.057077,10.057077 0 0 1 18.708661,28.765721 10.057077,10.057077 0 0 1 8.6516019,18.708661 10.057077,10.057077 0 0 1 18.708661,8.6516019 Z" />
  </g>
</svg>
